%TF.GenerationSoftware,KiCad,Pcbnew,9.0.0*%
%TF.CreationDate,2025-04-03T11:11:57-03:00*%
%TF.ProjectId,FuzzWah,46757a7a-5761-4682-9e6b-696361645f70,rev?*%
%TF.SameCoordinates,Original*%
%TF.FileFunction,Plated,1,2,PTH,Mixed*%
%TF.FilePolarity,Positive*%
%FSLAX46Y46*%
G04 Gerber Fmt 4.6, Leading zero omitted, Abs format (unit mm)*
G04 Created by KiCad (PCBNEW 9.0.0) date 2025-04-03 11:11:57*
%MOMM*%
%LPD*%
G01*
G04 APERTURE LIST*
%TA.AperFunction,ViaDrill*%
%ADD10C,0.400000*%
%TD*%
%TA.AperFunction,ComponentDrill*%
%ADD11C,0.750000*%
%TD*%
%TA.AperFunction,ComponentDrill*%
%ADD12C,0.800000*%
%TD*%
%TA.AperFunction,ComponentDrill*%
%ADD13C,1.000000*%
%TD*%
G04 aperture for slot hole*
%TA.AperFunction,ComponentDrill*%
%ADD14C,1.000000*%
%TD*%
%TA.AperFunction,ComponentDrill*%
%ADD15C,1.200000*%
%TD*%
%TA.AperFunction,ComponentDrill*%
%ADD16C,1.400000*%
%TD*%
G04 APERTURE END LIST*
D10*
X66802000Y-112014000D03*
X73025000Y-112014000D03*
D11*
%TO.C,Q1*%
X48006000Y-81534000D03*
X48006000Y-82804000D03*
X48006000Y-84074000D03*
%TO.C,Q2*%
X48016000Y-75818000D03*
X48016000Y-77088000D03*
X48016000Y-78358000D03*
%TO.C,Q4*%
X59242888Y-94234000D03*
X60512888Y-94234000D03*
X61782888Y-94234000D03*
%TO.C,Q5*%
X65786000Y-97684000D03*
X67056000Y-97684000D03*
X68326000Y-97684000D03*
%TO.C,Q3*%
X68834000Y-91313000D03*
X68834000Y-92583000D03*
X68834000Y-93853000D03*
%TO.C,Q6*%
X85344000Y-55266000D03*
X86614000Y-55266000D03*
X87884000Y-55266000D03*
%TO.C,Q7*%
X91440000Y-90043000D03*
X91440000Y-91313000D03*
X91440000Y-92583000D03*
%TO.C,Q8*%
X96266000Y-90043000D03*
X96266000Y-91313000D03*
X96266000Y-92583000D03*
D12*
%TO.C,C5*%
X39537000Y-105283000D03*
%TO.C,R101*%
X39878000Y-87884000D03*
X39878000Y-95504000D03*
%TO.C,C1*%
X39878000Y-99568000D03*
%TO.C,C2*%
X40132000Y-75818000D03*
X40132000Y-80818000D03*
%TO.C,C1*%
X41878000Y-99568000D03*
%TO.C,R2*%
X42926000Y-87884000D03*
X42926000Y-95504000D03*
%TO.C,R1*%
X43688000Y-75818000D03*
X43688000Y-83438000D03*
%TO.C,C5*%
X44537000Y-105283000D03*
%TO.C,R3*%
X45974000Y-87884000D03*
X45974000Y-95504000D03*
%TO.C,R8*%
X47117000Y-97790000D03*
X47117000Y-105410000D03*
%TO.C,R4*%
X49022000Y-87884000D03*
X49022000Y-95504000D03*
%TO.C,R6*%
X50165000Y-97790000D03*
X50165000Y-105410000D03*
%TO.C,R5*%
X52070000Y-87884000D03*
X52070000Y-95504000D03*
%TO.C,R7*%
X53213000Y-97790000D03*
X53213000Y-105410000D03*
%TO.C,C3*%
X53340000Y-76358000D03*
X53340000Y-78358000D03*
%TO.C,C4*%
X53350000Y-82090001D03*
X53350000Y-84090001D03*
%TO.C,C9*%
X56194888Y-88773000D03*
%TO.C,R102*%
X56235600Y-102108000D03*
X56235600Y-109728000D03*
%TO.C,C9*%
X58194888Y-88773000D03*
%TO.C,C10*%
X59242888Y-99060000D03*
%TO.C,R20*%
X59309000Y-102870000D03*
X59309000Y-110490000D03*
%TO.C,R9*%
X59817000Y-63380000D03*
X59817000Y-71000000D03*
%TO.C,R25*%
X60198000Y-44196000D03*
X60198000Y-51816000D03*
%TO.C,C10*%
X61242888Y-99060000D03*
%TO.C,R19*%
X62357000Y-102870000D03*
X62357000Y-110490000D03*
%TO.C,C7*%
X62516000Y-88773000D03*
%TO.C,R104*%
X62865000Y-63380000D03*
X62865000Y-71000000D03*
%TO.C,R24*%
X63246000Y-44196000D03*
X63246000Y-51816000D03*
%TO.C,C11*%
X63296800Y-54733513D03*
X63296800Y-56733513D03*
%TO.C,C7*%
X64516000Y-88773000D03*
%TO.C,R11*%
X65405000Y-102870000D03*
X65405000Y-110490000D03*
%TO.C,C12*%
X66802000Y-44196000D03*
X66802000Y-49196000D03*
%TO.C,R12*%
X68453000Y-77597000D03*
X68453000Y-85217000D03*
%TO.C,R18*%
X68453000Y-102870000D03*
X68453000Y-110490000D03*
%TO.C,C8*%
X68909000Y-61214000D03*
%TO.C,R23*%
X70358000Y-44196000D03*
X70358000Y-51816000D03*
%TO.C,C22*%
X71374000Y-55150000D03*
X71374000Y-57150000D03*
%TO.C,R14*%
X71501000Y-77597000D03*
X71501000Y-85217000D03*
%TO.C,R17*%
X71501000Y-102870000D03*
X71501000Y-110490000D03*
%TO.C,C21*%
X71882000Y-97684000D03*
%TO.C,C6*%
X72676000Y-91313000D03*
%TO.C,R22*%
X73406000Y-44196000D03*
X73406000Y-51816000D03*
%TO.C,C21*%
X73882000Y-97684000D03*
%TO.C,C8*%
X73909000Y-61214000D03*
%TO.C,R13*%
X74549000Y-77597000D03*
X74549000Y-85217000D03*
%TO.C,R21*%
X74549000Y-102870000D03*
X74549000Y-110490000D03*
%TO.C,C6*%
X74676000Y-91313000D03*
%TO.C,C13*%
X76962000Y-44207000D03*
X76962000Y-49207000D03*
%TO.C,R15*%
X77597000Y-77597000D03*
X77597000Y-85217000D03*
%TO.C,R16*%
X77597000Y-102870000D03*
X77597000Y-110490000D03*
%TO.C,R105*%
X77978000Y-91313000D03*
X77978000Y-98933000D03*
%TO.C,D1*%
X80391000Y-102870000D03*
X80391000Y-110490000D03*
%TO.C,R28*%
X80440000Y-44196000D03*
X80440000Y-51816000D03*
%TO.C,R10*%
X80645000Y-77597000D03*
X80645000Y-85217000D03*
%TO.C,R32*%
X81026000Y-91313000D03*
X81026000Y-98933000D03*
%TO.C,D2*%
X82931000Y-102870000D03*
X82931000Y-110490000D03*
%TO.C,R26*%
X83566000Y-44196000D03*
X83566000Y-51816000D03*
%TO.C,R103*%
X83693000Y-77597000D03*
X83693000Y-85217000D03*
%TO.C,R35*%
X84074000Y-91313000D03*
X84074000Y-98933000D03*
%TO.C,R30*%
X84328000Y-71120000D03*
%TO.C,C14*%
X84614000Y-60960000D03*
%TO.C,R31*%
X85852000Y-102870000D03*
X85852000Y-110490000D03*
%TO.C,R27*%
X86614000Y-44196000D03*
X86614000Y-51816000D03*
%TO.C,C14*%
X86614000Y-60960000D03*
%TO.C,R33*%
X87122000Y-91313000D03*
X87122000Y-98933000D03*
%TO.C,C15*%
X87436888Y-66548000D03*
%TO.C,C16*%
X89408000Y-105490000D03*
X89408000Y-110490000D03*
%TO.C,C15*%
X89436888Y-66548000D03*
%TO.C,R29*%
X89662000Y-44196000D03*
X89662000Y-51816000D03*
%TO.C,C18*%
X90551000Y-95163000D03*
X90551000Y-100163000D03*
%TO.C,R30*%
X91948000Y-71120000D03*
%TO.C,R36*%
X93980000Y-74509000D03*
X93980000Y-82129000D03*
%TO.C,R37*%
X94996000Y-95123000D03*
X94996000Y-102743000D03*
%TO.C,R38*%
X97028000Y-74509000D03*
X97028000Y-82129000D03*
%TO.C,R40*%
X98044000Y-95123000D03*
X98044000Y-102743000D03*
%TO.C,R39*%
X100076000Y-74509000D03*
X100076000Y-82129000D03*
%TO.C,R34*%
X101092000Y-95123000D03*
X101092000Y-102743000D03*
%TO.C,C20*%
X103632000Y-77129000D03*
X103632000Y-82129000D03*
%TO.C,R41*%
X104140000Y-95123000D03*
X104140000Y-102743000D03*
%TO.C,C19*%
X107442000Y-77129000D03*
X107442000Y-82129000D03*
%TO.C,C17*%
X108458000Y-102743000D03*
X108458000Y-104743000D03*
D13*
%TO.C,J1*%
X40132000Y-110236000D03*
X42672000Y-110236000D03*
X45212000Y-110236000D03*
X47752000Y-110236000D03*
X50292000Y-110236000D03*
X52832000Y-110236000D03*
D14*
%TO.C,SW2*%
X58350000Y-75370000D02*
X59850000Y-75370000D01*
X58350000Y-80000000D02*
X59850000Y-80000000D01*
X58350000Y-84630000D02*
X59850000Y-84630000D01*
X63150000Y-75370000D02*
X64650000Y-75370000D01*
X63150000Y-80000000D02*
X64650000Y-80000000D01*
X63150000Y-84630000D02*
X64650000Y-84630000D01*
D13*
%TO.C,J5*%
X73914000Y-66040000D03*
X76454000Y-66040000D03*
D14*
%TO.C,SW1*%
X87750000Y-75370000D02*
X89250000Y-75370000D01*
X87750000Y-80000000D02*
X89250000Y-80000000D01*
X87750000Y-84630000D02*
X89250000Y-84630000D01*
D13*
%TO.C,J2*%
X95250000Y-109728000D03*
X97790000Y-109728000D03*
X100330000Y-109728000D03*
X102870000Y-109728000D03*
X105410000Y-109728000D03*
X107950000Y-109728000D03*
D15*
%TO.C,RV1*%
X43000000Y-71000000D03*
X48000000Y-71000000D03*
X53000000Y-71000000D03*
%TO.C,RV2*%
X70000000Y-71000000D03*
X75000000Y-71000000D03*
X80000000Y-71000000D03*
%TO.C,RV3*%
X97000000Y-71000000D03*
X102000000Y-71000000D03*
%TO.C,L1*%
X104140000Y-88646000D03*
%TO.C,RV3*%
X107000000Y-71000000D03*
%TO.C,L1*%
X107140000Y-88646000D03*
D16*
%TO.C,J3*%
X40000000Y-45750000D03*
X40000000Y-52100000D03*
X40000000Y-58450000D03*
X56230000Y-45750000D03*
X56230000Y-52100000D03*
X56230000Y-58450000D03*
%TO.C,J4*%
X93218000Y-45750000D03*
X93218000Y-52100000D03*
X93218000Y-58450000D03*
X109448000Y-45750000D03*
X109448000Y-52100000D03*
X109448000Y-58450000D03*
M02*
