M48
; DRILL file {KiCad 9.0.0} date 2025-04-03T10:38:42-0300
; FORMAT={-:-/ absolute / metric / decimal}
; #@! TF.CreationDate,2025-04-03T10:38:42-03:00
; #@! TF.GenerationSoftware,Kicad,Pcbnew,9.0.0
; #@! TF.FileFunction,Plated,1,2,PTH
FMAT,2
METRIC
; #@! TA.AperFunction,Plated,PTH,ViaDrill
T1C0.400
; #@! TA.AperFunction,Plated,PTH,ComponentDrill
T2C0.750
; #@! TA.AperFunction,Plated,PTH,ComponentDrill
T3C0.800
; #@! TA.AperFunction,Plated,PTH,ComponentDrill
T4C1.000
; #@! TA.AperFunction,Plated,PTH,ComponentDrill
T5C1.200
; #@! TA.AperFunction,Plated,PTH,ComponentDrill
T6C1.400
%
G90
G05
T1
X66.802Y-112.014
X73.025Y-112.014
T2
X48.006Y-81.534
X48.006Y-82.804
X48.006Y-84.074
X48.016Y-75.818
X48.016Y-77.088
X48.016Y-78.358
X59.243Y-94.234
X60.513Y-94.234
X61.783Y-94.234
X65.786Y-97.684
X67.056Y-97.684
X68.326Y-97.684
X68.834Y-91.313
X68.834Y-92.583
X68.834Y-93.853
X85.344Y-55.266
X86.614Y-55.266
X87.884Y-55.266
X91.44Y-90.043
X91.44Y-91.313
X91.44Y-92.583
X96.266Y-90.043
X96.266Y-91.313
X96.266Y-92.583
T3
X39.537Y-105.283
X39.878Y-87.884
X39.878Y-95.504
X39.878Y-99.568
X40.132Y-75.818
X40.132Y-80.818
X41.878Y-99.568
X42.926Y-87.884
X42.926Y-95.504
X43.688Y-75.818
X43.688Y-83.438
X44.537Y-105.283
X45.974Y-87.884
X45.974Y-95.504
X47.117Y-97.79
X47.117Y-105.41
X49.022Y-87.884
X49.022Y-95.504
X50.165Y-97.79
X50.165Y-105.41
X52.07Y-87.884
X52.07Y-95.504
X53.213Y-97.79
X53.213Y-105.41
X53.34Y-76.358
X53.34Y-78.358
X53.35Y-82.09
X53.35Y-84.09
X56.195Y-88.773
X56.236Y-102.108
X56.236Y-109.728
X58.195Y-88.773
X59.243Y-99.06
X59.309Y-102.87
X59.309Y-110.49
X59.817Y-63.38
X59.817Y-71.0
X60.198Y-44.196
X60.198Y-51.816
X61.243Y-99.06
X62.357Y-102.87
X62.357Y-110.49
X62.516Y-88.773
X62.865Y-63.38
X62.865Y-71.0
X63.246Y-44.196
X63.246Y-51.816
X63.297Y-54.734
X63.297Y-56.734
X64.516Y-88.773
X65.405Y-102.87
X65.405Y-110.49
X66.802Y-44.196
X66.802Y-49.196
X68.453Y-77.597
X68.453Y-85.217
X68.453Y-102.87
X68.453Y-110.49
X68.909Y-61.214
X70.358Y-44.196
X70.358Y-51.816
X71.374Y-55.15
X71.374Y-57.15
X71.501Y-77.597
X71.501Y-85.217
X71.501Y-102.87
X71.501Y-110.49
X71.882Y-97.684
X72.676Y-91.313
X73.406Y-44.196
X73.406Y-51.816
X73.882Y-97.684
X73.909Y-61.214
X74.549Y-77.597
X74.549Y-85.217
X74.549Y-102.87
X74.549Y-110.49
X74.676Y-91.313
X76.962Y-44.207
X76.962Y-49.207
X77.597Y-77.597
X77.597Y-85.217
X77.597Y-102.87
X77.597Y-110.49
X77.978Y-91.313
X77.978Y-98.933
X80.391Y-102.87
X80.391Y-110.49
X80.44Y-44.196
X80.44Y-51.816
X80.645Y-77.597
X80.645Y-85.217
X81.026Y-91.313
X81.026Y-98.933
X82.931Y-102.87
X82.931Y-110.49
X83.566Y-44.196
X83.566Y-51.816
X83.693Y-77.597
X83.693Y-85.217
X84.074Y-91.313
X84.074Y-98.933
X84.328Y-71.12
X84.614Y-60.96
X85.852Y-102.87
X85.852Y-110.49
X86.614Y-44.196
X86.614Y-51.816
X86.614Y-60.96
X87.122Y-91.313
X87.122Y-98.933
X87.437Y-66.548
X89.408Y-105.49
X89.408Y-110.49
X89.437Y-66.548
X89.662Y-44.196
X89.662Y-51.816
X90.551Y-95.163
X90.551Y-100.163
X91.948Y-71.12
X93.98Y-74.509
X93.98Y-82.129
X94.996Y-95.123
X94.996Y-102.743
X97.028Y-74.509
X97.028Y-82.129
X98.044Y-95.123
X98.044Y-102.743
X100.076Y-74.509
X100.076Y-82.129
X101.092Y-95.123
X101.092Y-102.743
X103.632Y-77.129
X103.632Y-82.129
X104.14Y-95.123
X104.14Y-102.743
X107.442Y-77.129
X107.442Y-82.129
X108.458Y-102.743
X108.458Y-104.743
T4
X40.132Y-110.236
X42.672Y-110.236
X45.212Y-110.236
X47.752Y-110.236
X50.292Y-110.236
X52.832Y-110.236
X73.914Y-66.04
X76.454Y-66.04
X95.25Y-109.728
X97.79Y-109.728
X100.33Y-109.728
X102.87Y-109.728
X105.41Y-109.728
X107.95Y-109.728
T5
X43.0Y-71.0
X48.0Y-71.0
X53.0Y-71.0
X70.0Y-71.0
X75.0Y-71.0
X80.0Y-71.0
X97.0Y-71.0
X102.0Y-71.0
X104.14Y-88.646
X107.0Y-71.0
X107.14Y-88.646
T6
X40.0Y-45.75
X40.0Y-52.1
X40.0Y-58.45
X56.23Y-45.75
X56.23Y-52.1
X56.23Y-58.45
X93.218Y-45.75
X93.218Y-52.1
X93.218Y-58.45
X109.448Y-45.75
X109.448Y-52.1
X109.448Y-58.45
T4
G00X59.85Y-75.37
M15
G01X58.35Y-75.37
M16
G05
G00X59.85Y-80.0
M15
G01X58.35Y-80.0
M16
G05
G00X59.85Y-84.63
M15
G01X58.35Y-84.63
M16
G05
G00X64.65Y-75.37
M15
G01X63.15Y-75.37
M16
G05
G00X64.65Y-80.0
M15
G01X63.15Y-80.0
M16
G05
G00X64.65Y-84.63
M15
G01X63.15Y-84.63
M16
G05
G00X89.25Y-75.37
M15
G01X87.75Y-75.37
M16
G05
G00X89.25Y-80.0
M15
G01X87.75Y-80.0
M16
G05
G00X89.25Y-84.63
M15
G01X87.75Y-84.63
M16
G05
M30
